<mxfile host="65bd71144e">
    <diagram id="1mwbkELZtCMianHLCwNZ" name="Page-1">
        <mxGraphModel dx="746" dy="315" grid="1" gridSize="10" guides="1" tooltips="1" connect="1" arrows="1" fold="1" page="1" pageScale="1" pageWidth="850" pageHeight="1100" math="0" shadow="0">
            <root>
                <mxCell id="0"/>
                <mxCell id="1" parent="0"/>
                <mxCell id="19" value="/" style="swimlane;whiteSpace=wrap;html=1;" parent="1" vertex="1">
                    <mxGeometry x="30" y="50" width="450" height="250" as="geometry"/>
                </mxCell>
                <mxCell id="18" value="Purpose" style="swimlane;whiteSpace=wrap;html=1;" parent="19" vertex="1">
                    <mxGeometry x="20" y="40" width="200" height="80" as="geometry"/>
                </mxCell>
                <mxCell id="4" value="Loads" style="swimlane;whiteSpace=wrap;html=1;" parent="19" vertex="1">
                    <mxGeometry x="20" y="140" width="200" height="80" as="geometry"/>
                </mxCell>
                <mxCell id="23" value="Actions" style="swimlane;whiteSpace=wrap;html=1;" vertex="1" parent="19">
                    <mxGeometry x="230" y="40" width="200" height="200" as="geometry"/>
                </mxCell>
                <mxCell id="32" value="/login" style="swimlane;whiteSpace=wrap;html=1;" vertex="1" parent="1">
                    <mxGeometry x="30" y="330" width="450" height="250" as="geometry"/>
                </mxCell>
                <mxCell id="33" value="Purpose" style="swimlane;whiteSpace=wrap;html=1;" vertex="1" parent="32">
                    <mxGeometry x="20" y="40" width="200" height="80" as="geometry"/>
                </mxCell>
                <mxCell id="34" value="Loads" style="swimlane;whiteSpace=wrap;html=1;" vertex="1" parent="32">
                    <mxGeometry x="20" y="140" width="200" height="80" as="geometry"/>
                </mxCell>
                <mxCell id="35" value="Actions" style="swimlane;whiteSpace=wrap;html=1;" vertex="1" parent="32">
                    <mxGeometry x="230" y="40" width="200" height="200" as="geometry"/>
                </mxCell>
                <mxCell id="36" value="/canvas" style="swimlane;whiteSpace=wrap;html=1;" vertex="1" parent="1">
                    <mxGeometry x="30" y="610" width="450" height="250" as="geometry"/>
                </mxCell>
                <mxCell id="37" value="Purpose" style="swimlane;whiteSpace=wrap;html=1;" vertex="1" parent="36">
                    <mxGeometry x="20" y="40" width="200" height="80" as="geometry"/>
                </mxCell>
                <mxCell id="38" value="Loads" style="swimlane;whiteSpace=wrap;html=1;" vertex="1" parent="36">
                    <mxGeometry x="20" y="140" width="200" height="80" as="geometry"/>
                </mxCell>
                <mxCell id="39" value="Actions" style="swimlane;whiteSpace=wrap;html=1;" vertex="1" parent="36">
                    <mxGeometry x="230" y="40" width="200" height="200" as="geometry"/>
                </mxCell>
            </root>
        </mxGraphModel>
    </diagram>
</mxfile>